<svg width="650" height="650" xmlns="http://www.w3.org/2000/svg" xmlns:xlink="http://www.w3.org/1999/xlink" xml:space="preserve" overflow="hidden"><defs><clipPath id="clip0"><rect x="1544" y="639" width="650" height="650"/></clipPath></defs><g clip-path="url(#clip0)" transform="translate(-1544 -639)"><path d="M1869.48 862.5 1869.5 862.5C1869.5 934.215 1927.7 992.351 1999.5 992.351L1999.5 1152.5 1739.5 1152.5 1739.5 991.951C1806.81 991.951 1862.17 940.855 1868.83 875.377L1869.48 862.5Z" stroke="#0364B8" stroke-width="6.875" stroke-miterlimit="8" fill="#0364B8" fill-rule="evenodd"/><path d="M2042.5 949.5C2042.5 973.248 2023.25 992.5 1999.5 992.5" stroke="#0364B8" stroke-width="6.875" stroke-miterlimit="8" fill="none" fill-rule="evenodd"/><path d="M1740 992.5C1715.98 992.5 1696.5 973.024 1696.5 949" stroke="#0364B8" stroke-width="6.875" stroke-miterlimit="8" fill="none" fill-rule="evenodd"/><path d="M1869.5 1152.5 1999.49 1152.5 1999.51 1152.5 1999.51 1152.51 2129.5 1282.5 1999.51 1282.5 1999.49 1282.5 1869.5 1282.5Z" stroke="#28A9EB" stroke-width="6.875" stroke-miterlimit="8" fill="#28A9EB" fill-rule="evenodd"/><path d="M1739.5 1152.5 1869.5 1152.5 1869.5 1282.5 1739.5 1282.5 1609.5 1282.5Z" stroke="#128DDE" stroke-width="6.875" stroke-miterlimit="8" fill="#128DDE" fill-rule="evenodd"/></g></svg>